<?xml version="1.0" encoding="utf-8"?>
<!-- Generator: Adobe Illustrator 19.1.0, SVG Export Plug-In . SVG Version: 6.00 Build 0)  -->
<svg version="1.1" id="Layer_1" xmlns="http://www.w3.org/2000/svg" xmlns:xlink="http://www.w3.org/1999/xlink" x="0px" y="0px"
	 viewBox="0 0 205.5 84" style="enable-background:new 0 0 205.5 84;" xml:space="preserve">
<style type="text/css">
	.st0{fill:#93C178;}
	.st1{fill:#4965AE;}
	.st2{fill:#FFFFFF;}
</style>
<g>
	<path class="st0" d="M192.4,35.4L115.2,31v16.7c0,7.9-6.4,14.4-14.4,14.4l-0.1,0l-5.5-0.4v9.1c0,6.4,5.2,11.6,11.6,11.6h85.5
		c6.4,0,11.6-5.2,11.6-11.6V47.1C204.1,40.7,198.8,35.4,192.4,35.4z"/>
	<path class="st1" d="M100.8,1.5H14.2C7.2,1.5,1.4,7.2,1.4,14.3V42c0,7.1,5.7,12.8,12.8,12.8l86.6,5.7c7,0,12.8-5.7,12.8-12.8V14.3
		C113.6,7.2,107.9,1.5,100.8,1.5z"/>
	<g>
		<path class="st2" d="M27.5,24.1l-2.1,2.5c-1.1-1.2-2.6-2.1-4.1-2.1c-2.7,0-4.8,2.1-4.8,4.8c0,2.8,2.1,4.9,4.8,4.9
			c1.4,0,3-0.7,4.1-1.8l2.1,2.3c-1.7,1.7-4.1,2.8-6.4,2.8c-4.7,0-8.3-3.5-8.3-8.1c0-4.6,3.6-8,8.4-8C23.5,21.5,25.9,22.5,27.5,24.1z
			"/>
		<path class="st2" d="M40.3,37.4l0-6.2l-7.2,0l0,6.2l-3.6,0l0-15.8l3.6,0l0,6.6l7.2,0l0-6.6l3.6,0l0,15.8L40.3,37.4z"/>
		<path class="st2" d="M63.2,29.6c0,4.6-3.7,8.1-8.5,8.1s-8.5-3.5-8.5-8.1c0-4.6,3.7-8,8.5-8C59.6,21.5,63.2,25,63.2,29.6z
			 M49.9,29.6c0,2.8,2.2,4.9,4.9,4.9c2.6,0,4.8-2.2,4.8-4.9c0-2.8-2.1-4.9-4.8-4.9C52.1,24.7,49.9,26.8,49.9,29.6z"/>
		<path class="st2" d="M65.6,37.5l0-15.8l3.6,0l0,15.8L65.6,37.5z"/>
		<path class="st2" d="M86.2,24.2l-2.1,2.5c-1.1-1.2-2.6-2.1-4.1-2.1c-2.7,0-4.8,2.1-4.8,4.8c0,2.8,2.1,4.9,4.8,4.9
			c1.4,0,3-0.7,4.1-1.8l2.1,2.3c-1.7,1.7-4.1,2.8-6.4,2.8c-4.7,0-8.3-3.5-8.3-8.1c0-4.6,3.6-8,8.4-8C82.2,21.6,84.6,22.6,86.2,24.2z
			"/>
		<path class="st2" d="M91.9,24.6l0,3.4l7.6,0l0,3l-7.6,0l0,3.5l8.7,0l0,3l-12.3,0l0-15.8l12,0l0,3L91.9,24.6z"/>
	</g>
	<g>
		<g>
			<path class="st2" d="M128.9,60.1c0,2.9-1.9,4.9-4.6,4.9c-1.7,0-3.1-0.8-3.8-2.1l0,2.1l-1.4,0l0-13.6l1.4,0l0,6
				c0.7-1.4,2-2.1,3.7-2.1C127,55.2,128.9,57.2,128.9,60.1z M127.5,60.1c0-2.1-1.4-3.6-3.5-3.6c-2,0-3.5,1.5-3.5,3.6
				c0,2.1,1.4,3.6,3.5,3.6C126,63.7,127.5,62.2,127.5,60.1z"/>
			<path class="st2" d="M137.5,63.5c-0.8,1-2,1.6-3.5,1.6c-2,0-3.3-1.3-3.3-3c0-1.7,1.3-2.8,3.6-2.8l3.2,0v-0.6
				c0-1.4-0.9-2.3-2.6-2.3c-1.1,0-2.1,0.4-3.1,1.1l-0.6-1c1.3-0.8,2.3-1.3,4-1.3c2.4,0,3.7,1.3,3.7,3.3l0,6.4l-1.4,0L137.5,63.5z
				 M137.4,61.6v-1.2l-3,0c-1.6,0-2.5,0.5-2.5,1.6c0,1.1,0.9,1.8,2.2,1.8C135.8,63.8,137.1,63,137.4,61.6z"/>
			<path class="st2" d="M150.9,59l0,6l-1.4,0l0-5.6c0-1.7-1-2.7-2.7-2.7c-1.9,0-3.1,1.3-3.3,3.1l0,5.2l-1.4,0l0-9.7l1.4,0l0,2.1
				c0.7-1.5,2-2.2,3.8-2.2C149.6,55.2,150.9,56.7,150.9,59z"/>
			<path class="st2" d="M155.6,62.2l0,2.8l-1.4,0l0-13.6l1.4,0l0,8.9l5-5l1.7,0l-3.6,3.7l4,5.9l-1.7,0l-3.3-4.9L155.6,62.2z"/>
			<path class="st2" d="M166.3,52.5c0,0.6-0.4,1-0.9,1c-0.5,0-0.9-0.4-0.9-1c0-0.6,0.4-1,0.9-1C165.9,51.5,166.3,51.9,166.3,52.5z
				 M164.6,65l0-9.7l1.4,0l0,9.7L164.6,65z"/>
			<path class="st2" d="M178.4,59l0,6l-1.4,0l0-5.6c0-1.7-1-2.7-2.7-2.7c-1.9,0-3.1,1.3-3.3,3.1l0,5.2l-1.4,0l0-9.7l1.4,0l0,2.1
				c0.7-1.5,2-2.2,3.8-2.2C177.1,55.2,178.4,56.7,178.4,59z"/>
			<path class="st2" d="M190,64c0,2.8-1.9,4.6-4.9,4.6c-1.5,0-2.8-0.5-4-1.4l0.7-1.1c1,0.8,2,1.2,3.3,1.2c2.1,0,3.5-1.3,3.5-3.3
				l0-1.5c-0.7,1.3-1.9,2-3.6,2c-2.6,0-4.4-1.9-4.4-4.7c0-2.7,1.8-4.6,4.4-4.6c1.7,0,2.9,0.7,3.6,2l0-2l1.4,0L190,64z M188.6,59.9
				c0-2-1.4-3.4-3.3-3.4c-1.9,0-3.3,1.4-3.3,3.4c0,2,1.4,3.4,3.3,3.4C187.2,63.3,188.6,61.9,188.6,59.9z"/>
		</g>
	</g>
</g>
</svg>
